<svg width="398" height="652" viewBox="0 0 398 652" fill="none" xmlns="http://www.w3.org/2000/svg">
<mask id="mask0" mask-type="alpha" maskUnits="userSpaceOnUse" x="0" y="0" width="398" height="652">
<rect width="398" height="652" fill="#C4C4C4"/>
</mask>
<g mask="url(#mask0)">
<path d="M292.856 177.804C265.812 177.804 250.277 167.489 246.692 147.174V146.482H199.206V147.426C205.496 190.131 240.339 214.597 293.926 214.597C356.443 214.597 398.394 172.458 398.394 109.689V106.544C398.394 43.6494 356.254 0.0633597 295.875 0.0633597C270.938 -0.837769 246.612 7.90166 227.949 24.4665C208.389 42.8318 198.451 69.6249 198.451 104.154V118.62H348.392C346.569 156.734 326.882 177.678 292.856 177.678V177.804ZM247.132 85.4744C249.585 52.7691 266 36.2278 296.001 36.2278C323.423 36.2278 342.606 54.656 347.512 85.4744H247.132Z" fill="#1B025F"/>
<path d="M406.322 217.553C381.384 216.652 357.058 225.391 338.396 241.956C318.835 260.321 308.898 287.114 308.898 321.644V336.109H458.713C456.889 374.224 437.203 395.168 403.177 395.168C376.132 395.168 360.597 384.853 357.012 364.538V363.846H309.527V364.789C316.257 407.558 350.786 432.275 404.372 432.275C466.889 432.275 508.84 390.136 508.84 327.367V324.222C508.84 261.328 466.701 217.742 406.322 217.742V217.553ZM357.515 302.901C359.968 270.196 376.384 253.654 406.322 253.654C433.744 253.654 452.927 272.083 457.833 302.901H357.515Z" fill="#1B025F"/>
<path d="M296.002 437.811C271.065 436.909 246.739 445.649 228.076 462.214C208.516 480.579 198.578 507.372 198.578 541.901V556.367H348.394C346.57 594.481 326.884 615.425 292.857 615.425C265.813 615.425 250.278 605.111 246.693 584.796V584.104H199.207V585.047C205.497 627.753 240.34 652.219 293.927 652.219C356.444 652.219 398.395 610.079 398.395 547.31V544.166C398.395 481.271 356.255 437.685 295.876 437.685L296.002 437.811ZM247.133 523.096C249.586 490.391 266.001 473.786 296.002 473.786C323.424 473.786 342.607 492.215 347.513 523.096H247.133Z" fill="#1B025F"/>
<path d="M82.7248 214.593C136.311 214.593 170.777 190.064 177.444 147.421V146.478H130.21V147.17C126.625 167.485 111.342 177.8 84.0456 177.8C50.0196 177.8 30.3335 156.856 28.5096 118.741H178.262V104.276C178.262 69.7465 168.325 42.9534 148.764 24.5881C130.102 8.02324 105.775 -0.716187 80.838 0.184942C20.459 0.184942 -21.6804 44.2112 -21.6804 106.666V109.81C-21.6804 172.705 20.3333 214.719 82.8506 214.719L82.7248 214.593ZM29.3901 85.5331C34.1701 54.5889 53.353 36.0349 80.7751 36.0349C110.776 36.0349 127.191 52.6391 129.644 85.2815L29.3901 85.5331Z" fill="#1B025F"/>
<path d="M288.581 321.707C288.581 287.178 278.644 260.385 259.084 242.02C240.421 225.455 216.095 216.715 191.158 217.616C130.779 217.616 88.6392 261.643 88.6392 324.097V327.242C88.6392 390.137 130.653 432.15 193.17 432.15C246.757 432.15 281.223 407.621 287.89 364.979V364.035H240.53V364.727C236.945 385.042 221.662 395.357 194.365 395.357C160.339 395.357 140.653 374.413 138.829 336.299H288.581V321.707ZM139.584 302.839C144.49 271.957 163.673 253.592 191.095 253.592C221.095 253.592 237.511 270.196 239.901 302.839H139.584Z" fill="#1B025F"/>
<path d="M80.7746 437.806C20.3956 437.806 -21.7438 481.833 -21.7438 544.287V547.432C-21.7438 610.327 20.2698 652.34 82.7872 652.34C136.374 652.34 170.84 627.811 177.507 585.169V584.225H130.21V584.917C126.625 605.232 111.341 615.547 84.0451 615.547C50.0191 615.547 30.333 594.603 28.5091 556.489H178.261V542.023C178.261 507.494 168.324 480.701 148.764 462.335C130.101 445.77 105.775 437.031 80.8375 437.932L80.7746 437.806ZM29.2638 523.092C34.1696 492.21 53.3525 473.782 80.7746 473.782C110.775 473.782 127.191 490.386 129.644 523.092H29.2638Z" fill="#1B025F"/>
<path d="M67.1248 364.853V363.91H19.8908V364.601C16.3058 384.916 1.02242 395.231 -26.2739 395.231C-60.2999 395.231 -79.986 374.287 -81.8099 336.173H67.9424V321.707C67.9424 287.178 58.005 260.385 38.4448 242.02C19.7822 225.455 -4.54409 216.715 -29.4815 217.616C-89.8605 217.616 -132 261.643 -132 324.097V327.242C-132.063 389.885 -90.0491 432.276 -27.5318 432.276C26.0545 432.276 60.5208 407.747 67.1877 365.104L67.1248 364.853ZM-86.0239 302.902C-81.1181 272.02 -61.9352 253.655 -34.5131 253.655C-4.51232 253.655 11.9032 270.259 14.3561 302.902H-86.0239Z" fill="#1B025F"/>
</g>
</svg>
