<svg width="469" height="620" viewBox="0 0 469 620" fill="none" xmlns="http://www.w3.org/2000/svg">
<g opacity="0.4">
<path opacity="0.5" d="M424.856 144.804C397.812 144.804 382.277 134.489 378.692 114.174V113.482H331.206V114.426C337.496 157.131 372.339 181.597 425.926 181.597C488.443 181.597 530.394 139.458 530.394 76.6889V73.5441C530.394 10.6494 488.254 -32.9366 427.875 -32.9366C402.938 -33.8378 378.612 -25.0983 359.949 -8.53349C340.389 9.83177 330.451 36.6249 330.451 71.1541V85.6199H480.392C478.568 123.734 458.882 144.678 424.856 144.678V144.804ZM379.132 52.4744C381.585 19.7691 398 3.22783 428.001 3.22783C455.423 3.22783 474.606 21.656 479.512 52.4744H379.132Z" fill="white"/>
<path opacity="0.5" d="M538.322 184.553C513.384 183.652 489.058 192.391 470.396 208.956C450.835 227.321 440.898 254.114 440.898 288.644V303.109H590.713C588.889 341.224 569.203 362.168 535.177 362.168C508.132 362.168 492.597 351.853 489.012 331.538V330.846H441.527V331.789C448.257 374.558 482.786 399.275 536.372 399.275C598.889 399.275 640.84 357.136 640.84 294.367V291.222C640.84 228.328 598.701 184.742 538.322 184.742V184.553ZM489.516 269.901C491.968 237.196 508.384 220.654 538.322 220.654C565.744 220.654 584.927 239.083 589.833 269.901H489.516Z" fill="white"/>
<path opacity="0.5" d="M428.002 404.811C403.065 403.909 378.739 412.649 360.076 429.214C340.516 447.579 330.578 474.372 330.578 508.901V523.367H480.394C478.57 561.481 458.884 582.425 424.858 582.425C397.813 582.425 382.278 572.111 378.693 551.796V551.104H331.207V552.047C337.497 594.753 372.34 619.219 425.927 619.219C488.444 619.219 530.395 577.079 530.395 514.31V511.166C530.395 448.271 488.255 404.685 427.877 404.685L428.002 404.811ZM379.133 490.096C381.586 457.391 398.002 440.786 428.002 440.786C455.424 440.786 474.607 459.215 479.513 490.096H379.133Z" fill="white"/>
<path opacity="0.5" d="M214.725 181.593C268.311 181.593 302.777 157.064 309.444 114.421V113.478H262.21V114.17C258.625 134.485 243.342 144.8 216.046 144.8C182.02 144.8 162.334 123.856 160.51 85.7415H310.262V71.2757C310.262 36.7465 300.325 9.95335 280.764 -8.41191C262.102 -24.9768 237.775 -33.7162 212.838 -32.8151C152.459 -32.8151 110.32 11.2112 110.32 73.6657V76.8104C110.32 139.705 152.333 181.719 214.851 181.719L214.725 181.593ZM161.39 52.5331C166.17 21.5889 185.353 3.03493 212.775 3.03493C242.776 3.03493 259.191 19.6391 261.644 52.2815L161.39 52.5331Z" fill="white"/>
<path opacity="0.5" d="M420.581 288.707C420.581 254.178 410.644 227.385 391.084 209.02C372.421 192.455 348.095 183.715 323.158 184.616C262.779 184.616 220.639 228.643 220.639 291.097V294.242C220.639 357.137 262.653 399.15 325.17 399.15C378.757 399.15 413.223 374.621 419.89 331.979V331.035H372.53V331.727C368.945 352.042 353.662 362.357 326.365 362.357C292.339 362.357 272.653 341.413 270.829 303.299H420.581V288.707ZM271.584 269.839C276.49 238.957 295.673 220.592 323.095 220.592C353.095 220.592 369.511 237.196 371.901 269.839H271.584Z" fill="white"/>
<path opacity="0.5" d="M212.775 404.806C152.396 404.806 110.256 448.833 110.256 511.287V514.432C110.256 577.327 152.27 619.34 214.787 619.34C268.373 619.34 302.84 594.811 309.507 552.169V551.225H262.21V551.917C258.625 572.232 243.341 582.547 216.045 582.547C182.019 582.547 162.333 561.603 160.509 523.489H310.261V509.023C310.261 474.494 300.324 447.701 280.764 429.335C262.101 412.77 237.775 404.031 212.837 404.932L212.775 404.806ZM161.264 490.092C166.17 459.21 185.352 440.782 212.775 440.782C242.775 440.782 259.191 457.386 261.644 490.092H161.264Z" fill="white"/>
<path opacity="0.5" d="M199.125 331.853V330.91H151.891V331.601C148.306 351.916 133.022 362.231 105.726 362.231C71.7001 362.231 52.014 341.287 50.1901 303.173H199.942V288.707C199.942 254.178 190.005 227.385 170.445 209.02C151.782 192.455 127.456 183.715 102.518 184.616C42.1395 184.616 7.05188e-05 228.643 7.05188e-05 291.097V294.242C-0.0628242 356.885 41.9509 399.276 104.468 399.276C158.055 399.276 192.521 374.747 199.188 332.104L199.125 331.853ZM45.9761 269.902C50.8819 239.02 70.0648 220.655 97.4869 220.655C127.488 220.655 143.903 237.259 146.356 269.902H45.9761Z" fill="white"/>
</g>
</svg>
