<svg width="124" height="31" viewBox="0 0 124 31" fill="none" xmlns="http://www.w3.org/2000/svg">
<path d="M19.6278 8.8748C18.3783 8.8748 17.6606 8.39827 17.495 7.45973V7.42777H15.3012V7.47135C15.5918 9.44432 17.2015 10.5746 19.6772 10.5746C22.5654 10.5746 24.5035 8.62782 24.5035 5.72794V5.58266C24.5035 2.67697 22.5567 0.663328 19.7673 0.663328C18.6152 0.621696 17.4913 1.02545 16.6291 1.79073C15.7255 2.6392 15.2664 3.87702 15.2664 5.47224V6.14055H22.1935C22.1093 7.9014 21.1998 8.86899 19.6278 8.86899V8.8748ZM17.5154 4.60925C17.6287 3.09829 18.3871 2.3341 19.7731 2.3341C21.04 2.3341 21.9262 3.18546 22.1528 4.60925H17.5154Z" fill="#F50082"/>
<path d="M24.8698 10.7112C23.7177 10.6695 22.5939 11.0733 21.7317 11.8386C20.828 12.687 20.3689 13.9249 20.3689 15.5201V16.1884H27.2902C27.206 17.9492 26.2965 18.9168 24.7245 18.9168C23.4751 18.9168 22.7574 18.4403 22.5917 17.5018V17.4698H20.398V17.5134C20.7089 19.4893 22.3041 20.6312 24.7797 20.6312C27.668 20.6312 29.6061 18.6844 29.6061 15.7845V15.6392C29.6061 12.7335 27.6593 10.7199 24.8698 10.7199V10.7112ZM22.615 14.6542C22.7283 13.1432 23.4867 12.379 24.8698 12.379C26.1367 12.379 27.0229 13.2304 27.2496 14.6542H22.615Z" fill="#F50082"/>
<path d="M19.7731 20.8869C18.621 20.8453 17.4972 21.249 16.635 22.0143C15.7313 22.8628 15.2722 24.1006 15.2722 25.6958V26.3641H22.1936C22.1093 28.125 21.1998 29.0926 19.6278 29.0926C18.3784 29.0926 17.6607 28.616 17.4951 27.6775V27.6455H15.3013V27.6891C15.5918 29.6621 17.2016 30.7924 19.6772 30.7924C22.5655 30.7924 24.5036 28.8456 24.5036 25.9457V25.8004C24.5036 22.8947 22.5568 20.8811 19.7673 20.8811L19.7731 20.8869ZM17.5154 24.827C17.6287 23.3161 18.3871 22.549 19.7731 22.549C21.04 22.549 21.9262 23.4003 22.1529 24.827H17.5154Z" fill="#F50082"/>
<path d="M9.92012 10.5744C12.3958 10.5744 13.9881 9.44121 14.2961 7.47116V7.42757H12.1139V7.45953C11.9483 8.39807 11.2422 8.87461 9.98114 8.87461C8.40916 8.87461 7.49968 7.90701 7.41542 6.14616H14.3339V5.47786C14.3339 3.88263 13.8748 2.64481 12.9711 1.79635C12.1089 1.03107 10.985 0.627311 9.83295 0.668943C7.04349 0.668943 5.09668 2.70292 5.09668 5.58827V5.73356C5.09668 8.63924 7.03768 10.5802 9.92593 10.5802L9.92012 10.5744ZM7.4561 4.61196C7.67693 3.18236 8.56317 2.32518 9.83005 2.32518C11.2161 2.32518 11.9744 3.09229 12.0878 4.60034L7.4561 4.61196Z" fill="#00005A"/>
<path d="M19.4303 15.523C19.4303 13.9278 18.9712 12.69 18.0675 11.8415C17.2053 11.0762 16.0815 10.6725 14.9294 10.7141C12.1399 10.7141 10.1931 12.7481 10.1931 15.6334V15.7787C10.1931 18.6844 12.1341 20.6254 15.0224 20.6254C17.498 20.6254 19.0903 19.4922 19.3983 17.5221V17.4786H17.2104V17.5105C17.0447 18.4491 16.3386 18.9256 15.0776 18.9256C13.5056 18.9256 12.5961 17.958 12.5119 16.1971H19.4303V15.523ZM12.5467 14.6513C12.7734 13.2246 13.6596 12.3762 14.9265 12.3762C16.3125 12.3762 17.0709 13.1433 17.1813 14.6513H12.5467Z" fill="#00005A"/>
<path d="M9.82978 20.8867C7.04032 20.8867 5.09351 22.9207 5.09351 25.806V25.9513C5.09351 28.857 7.03451 30.798 9.92276 30.798C12.3984 30.798 13.9907 29.6648 14.2987 27.6947V27.6512H12.1136V27.6831C11.948 28.6217 11.2419 29.0982 9.98087 29.0982C8.4089 29.0982 7.49942 28.1306 7.41515 26.3698H14.3336V25.7014C14.3336 24.1062 13.8745 22.8684 12.9708 22.0199C12.1086 21.2547 10.9848 20.8509 9.83268 20.8925L9.82978 20.8867ZM7.45002 24.8268C7.67666 23.4001 8.5629 22.5488 9.82978 22.5488C11.2158 22.5488 11.9742 23.3159 12.0875 24.8268H7.45002Z" fill="#00005A"/>
<path d="M9.19941 17.5163V17.4727H7.01724V17.5047C6.85161 18.4432 6.14553 18.9198 4.88446 18.9198C3.31249 18.9198 2.40301 17.9522 2.31874 16.1913H9.23718V15.523C9.23718 13.9278 8.77809 12.69 7.87442 11.8415C7.01222 11.0762 5.88836 10.6725 4.73627 10.7141C1.94681 10.7141 3.25791e-06 12.7481 3.25791e-06 15.6334V15.7787C-0.00290243 18.6728 1.9381 20.6312 4.82635 20.6312C7.302 20.6312 8.89431 19.498 9.20232 17.5279L9.19941 17.5163ZM2.12406 14.6542C2.3507 13.2275 3.23694 12.3791 4.50382 12.3791C5.88983 12.3791 6.64822 13.1462 6.76154 14.6542H2.12406Z" fill="#00005A"/>
<path d="M51.6804 9.12178C50.2275 7.76482 48.24 7.04712 45.9155 7.04712C40.7956 7.04712 37.2188 10.7577 37.2188 16.0722V16.3366C37.2188 21.6569 40.7782 25.2309 46.0811 25.2309C50.6285 25.2309 53.5574 23.1475 54.1182 19.5183L54.1415 19.3643H50.0183L49.998 19.4747C49.7074 21.1484 48.4173 21.9998 46.177 21.9998C43.3759 21.9998 41.7458 20.2825 41.5744 17.1647H54.1822V15.8775C54.1822 12.9515 53.3395 10.6792 51.6775 9.12178H51.6804ZM41.6615 14.2387C42.0916 11.6846 43.6345 10.2259 45.9184 10.2259C48.3766 10.2259 49.7365 11.5771 49.9573 14.2387H41.6615Z" fill="#00005A"/>
<path d="M63.4253 14.1949C60.755 13.7446 59.9821 13.2797 59.9821 12.1203C59.9821 10.9609 60.9787 10.2112 62.5827 10.2112C64.3261 10.2112 65.1978 10.8679 65.5145 12.4109L65.5378 12.5184H69.4837L69.4663 12.3702C69.0769 8.83976 66.7611 7.04695 62.5827 7.04695C60.9786 7.01273 59.4027 7.47112 58.0672 8.36032C57.4168 8.80084 56.8864 9.39661 56.5242 10.0937C56.1619 10.7908 55.9792 11.5672 55.9926 12.3527C55.9926 15.5693 57.6517 16.9757 62.3299 17.7225C65.0351 18.1786 65.9068 18.7249 65.9068 19.9627C65.9068 21.3778 64.9653 22.0345 62.9459 22.0345C60.848 22.0345 59.863 21.2441 59.6537 19.3874V19.2683H55.6265V19.4077C55.7921 23.1096 58.4711 25.2191 62.972 25.2191C67.473 25.2191 69.9893 23.1648 69.9893 19.585C69.9893 15.9151 67.5805 14.8255 63.4195 14.1833" fill="#00005A"/>
<path d="M79.2468 14.1949C76.5765 13.7446 75.8036 13.2797 75.8036 12.1203C75.8036 10.9609 76.8003 10.2112 78.4042 10.2112C80.1476 10.2112 81.0193 10.8679 81.336 12.4109L81.3593 12.5184H85.3052L85.2878 12.3702C84.8984 8.83976 82.5826 7.04695 78.4042 7.04695C76.8002 7.01273 75.2242 7.47112 73.8888 8.36032C73.2383 8.80084 72.7079 9.39661 72.3457 10.0937C71.9834 10.7908 71.8007 11.5672 71.8141 12.3527C71.8141 15.5693 73.4732 16.9757 78.1514 17.7225C80.8566 18.1786 81.7283 18.7249 81.7283 19.9627C81.7283 21.3778 80.7869 22.0345 78.7674 22.0345C76.6695 22.0345 75.6845 21.2441 75.4753 19.3874V19.2683H71.4451V19.4077C71.6107 23.1096 74.2897 25.2191 78.7907 25.2191C83.2916 25.2191 85.8079 23.1648 85.8079 19.585C85.8079 15.9151 83.3991 14.8255 79.2381 14.1833" fill="#00005A"/>
<path d="M90.1895 0.000690458C89.8639 -0.00704781 89.5399 0.0503253 89.2367 0.169444C88.9336 0.288563 88.6572 0.467029 88.4239 0.694374C88.1906 0.921718 88.0051 1.19336 87.8781 1.49337C87.7512 1.79338 87.6855 2.11572 87.6848 2.44147C87.7281 3.07552 88.0104 3.6695 88.4749 4.10333C88.9393 4.53715 89.5511 4.77846 90.1866 4.77846C90.8221 4.77846 91.434 4.53715 91.8984 4.10333C92.3628 3.6695 92.6452 3.07552 92.6884 2.44147C92.6877 2.11622 92.6222 1.79437 92.4956 1.49475C92.3691 1.19513 92.184 0.923755 91.9514 0.696489C91.7187 0.469223 91.443 0.290632 91.1405 0.171161C90.838 0.05169 90.5147 -0.0062634 90.1895 0.000690458Z" fill="#00005A"/>
<path d="M88.2486 7.41016H88.1121V7.54382V24.7687V24.9024H88.2486H92.2323H92.366V24.7687V7.54382V7.41016H92.2323H88.2486Z" fill="#00005A"/>
<path d="M102.699 21.6713C101.475 21.6713 100.856 20.974 100.856 19.5996V10.6762H104.634V7.41021H100.856V3.63281H96.6053V7.41021H94.3854V10.6762H96.6053V19.9744C96.6053 23.3537 98.4998 25.2046 101.943 25.2046C102.877 25.224 103.807 25.0764 104.689 24.7688L104.776 24.7368V21.2761L104.59 21.3517C103.988 21.5862 103.344 21.695 102.699 21.6713Z" fill="#00005A"/>
<path d="M123.288 7.41016H119.403H119.31L119.279 7.49733L115.184 18.2774L110.736 7.49442L110.701 7.41016H110.611H106.296H106.09L106.174 7.59903L112.967 23.0253L109.861 30.6121L109.786 30.798H109.983H113.903H113.993L114.028 30.7138L123.413 7.59612L123.489 7.41016H123.288Z" fill="#00005A"/>
</svg>
