<svg width="40" height="40" viewBox="0 0 40 40" fill="none" xmlns="http://www.w3.org/2000/svg">
<path d="M5.56315e-06 20C6.52743e-06 8.97 8.97201 -2.71255e-06 20 -1.74846e-06C31.028 -7.84357e-07 40 8.97 40 20C40 31.028 31.028 40 20 40C8.972 40 4.59905e-06 31.028 5.56315e-06 20Z" fill="#010659"/>
<path d="M11.5588 22.8848C11.5588 22.5028 11.7048 22.1188 11.9968 21.8268L18.9368 14.8528C19.2188 14.5708 19.6008 14.4128 20.0008 14.4128C20.3988 14.4128 20.7808 14.5708 21.0628 14.8528L28.0068 21.8268C28.5908 22.4128 28.5908 23.3608 28.0028 23.9468C27.4148 24.5308 26.4648 24.5288 25.8808 23.9428L20.0008 18.0368L14.1208 23.9428C13.5368 24.5288 12.5888 24.5308 12.0008 23.9468C11.7048 23.6548 11.5588 23.2688 11.5588 22.8848Z" fill="white"/>
</svg>
