<svg width="40" height="40" viewBox="0 0 40 40" fill="none" xmlns="http://www.w3.org/2000/svg">
<path d="M40 20C40 31.03 31.028 40 20 40C8.972 40 0 31.03 0 20C0 8.972 8.972 0 20 0C31.028 0 40 8.972 40 20Z" fill="#010659"/>
<path d="M28.4412 17.1152C28.4412 17.4972 28.2952 17.8812 28.0032 18.1732L21.0632 25.1472C20.7812 25.4292 20.3992 25.5872 19.9992 25.5872C19.6012 25.5872 19.2192 25.4292 18.9372 25.1472L11.9932 18.1732C11.4092 17.5872 11.4092 16.6392 11.9972 16.0532C12.5852 15.4692 13.5352 15.4712 14.1192 16.0572L19.9992 21.9632L25.8792 16.0572C26.4632 15.4712 27.4112 15.4692 27.9992 16.0532C28.2952 16.3452 28.4412 16.7312 28.4412 17.1152Z" fill="white"/>
</svg>
