<svg width="18" height="19" viewBox="0 0 18 19" fill="none" xmlns="http://www.w3.org/2000/svg">
<path fill-rule="evenodd" clip-rule="evenodd" d="M14.5195 13.83L17.2241 16.5159L15.5886 18.1402L12.8666 15.437C9.44111 17.9244 4.66251 17.3609 1.91877 14.1461C-0.824971 10.9313 -0.601482 6.15762 2.43079 3.2095C5.46306 0.261388 10.2737 0.140693 13.452 2.93299C16.6303 5.72529 17.0962 10.4817 14.5195 13.83ZM8.07561 3.21841C4.88383 3.21841 2.29638 5.78796 2.29638 8.95766C2.29638 12.1274 4.88383 14.6969 8.07561 14.6969C11.2674 14.6969 13.8548 12.1274 13.8548 8.95766C13.8548 5.78796 11.2674 3.21841 8.07561 3.21841Z" fill="#00005A"/>
</svg>
