<svg width="139" height="60" viewBox="0 0 139 60" fill="none" xmlns="http://www.w3.org/2000/svg">
<g opacity="0.88" clip-path="url(#clip0)">
<path d="M138.497 29.605C138.497 29.605 109.461 58.9789 69.4127 58.9789C29.36 58.9835 0.324219 29.605 0.324219 29.605C0.324219 29.605 29.36 0.231201 69.4127 0.231201C109.461 0.231201 138.497 29.605 138.497 29.605Z" fill="white" stroke="white" stroke-width="0.463091" stroke-miterlimit="10"/>
<path d="M5.25613 25.2104C2.31551 27.6463 0.611335 29.3227 0.356635 29.5728C0.333481 29.5959 0.324219 29.6052 0.324219 29.6052C0.324219 29.6052 29.36 58.979 69.4081 58.979C81.7865 58.979 93.1137 56.1727 102.852 52.2966C93.9565 55.7328 83.5925 58.3122 72.4367 58.3955C49.9861 58.5669 25.0301 46.9989 5.25613 25.2104Z" fill="#7FBC42"/>
<path d="M133.565 34.0044C136.505 31.5685 138.209 29.8922 138.459 29.6421C138.483 29.6189 138.492 29.6097 138.492 29.6097C138.492 29.6097 109.461 0.231201 69.4127 0.231201C57.0343 0.231201 45.7117 3.03753 35.9683 6.9136C44.8642 3.47747 55.2282 0.898052 66.3841 0.814695C88.8347 0.643352 113.795 12.216 133.565 34.0044Z" fill="#3CB4E5"/>
<path d="M105.459 20.2695C104.427 20.2695 103.551 21.0799 103.551 22.1589C103.551 23.2611 104.427 24.0669 105.459 24.0669C106.497 24.0669 107.367 23.2611 107.367 22.1589C107.367 21.0753 106.497 20.2695 105.459 20.2695ZM105.459 23.6871C104.626 23.6871 103.977 23.0388 103.977 22.1589C103.977 21.293 104.626 20.6446 105.459 20.6446C106.288 20.6446 106.932 21.293 106.932 22.1589C106.932 23.0434 106.288 23.6871 105.459 23.6871ZM106.288 21.8348C106.288 21.455 105.982 21.1818 105.598 21.1818H104.783V23.1314H105.172V22.497H105.473L105.83 23.1314H106.265L105.876 22.4461C106.126 22.3442 106.288 22.1126 106.288 21.8348ZM105.543 22.1636H105.177V21.5106H105.543C105.765 21.5106 105.871 21.6449 105.871 21.8348C105.871 22.0385 105.751 22.1636 105.543 22.1636Z" fill="#204180"/>
<path d="M96.3321 20.376H94.6233C92.2152 20.376 90.8259 21.8116 90.2563 23.9418L86.2598 38.844H87.8714C88.5707 38.844 89.1819 38.3763 89.3626 37.7002L90.5712 33.1897H99.444L100.648 37.7002C100.829 38.3763 101.44 38.844 102.139 38.844H105.26L101.426 24.4882C100.768 22.0107 99.1801 20.376 96.3321 20.376ZM91.1547 31.0085L93.058 23.9047C93.271 23.1128 93.9333 22.571 94.7529 22.5618H95.3086C96.2441 22.5618 96.7489 23.1082 96.9619 23.9047L98.8605 31.0085H91.1547ZM83.0692 20.376H84.2176V38.844H82.8052C81.8836 38.844 81.0038 38.455 80.3832 37.7743L69.9822 26.3406V37.3019C69.9822 38.154 69.2922 38.844 68.4401 38.844H67.2917V20.376H68.7921C69.7136 20.376 70.5981 20.765 71.2187 21.4503L81.5271 32.8192V21.9181C81.5224 21.066 82.2171 20.376 83.0692 20.376ZM64.5409 21.9227V22.5618H54.163V28.2207H62.8136V28.8598C62.8136 29.7119 62.1189 30.4019 61.2668 30.4019H54.1584V36.6582H64.5363V37.2973C64.5363 38.1494 63.8416 38.8394 62.9942 38.8394H49.898V20.376H62.9988C63.8509 20.376 64.5409 21.066 64.5409 21.9227ZM47.439 21.9181V22.5571H40.1823V38.844H35.908V22.5571H28.6514V21.9181C28.6514 21.066 29.346 20.376 30.1935 20.376H45.8969C46.749 20.376 47.439 21.0706 47.439 21.9181Z" fill="#1E4DB7"/>
</g>
<defs>
<clipPath id="clip0">
<rect width="138.821" height="59.2154" fill="white"/>
</clipPath>
</defs>
</svg>
