<svg width="550" height="637" viewBox="0 0 550 637" fill="none" xmlns="http://www.w3.org/2000/svg">
<g opacity="0.4">
<path opacity="0.5" d="M424.857 161.804C397.812 161.804 382.277 151.489 378.692 131.174V130.482H331.206V131.426C337.496 174.131 372.34 198.597 425.926 198.597C488.443 198.597 530.394 156.458 530.394 93.6889V90.5441C530.394 27.6494 488.255 -15.9366 427.876 -15.9366C402.938 -16.8378 378.612 -8.09834 359.949 8.46651C340.389 26.8318 330.452 53.6249 330.452 88.1541V102.62H480.393C478.569 140.734 458.883 161.678 424.857 161.678V161.804ZM379.132 69.4744C381.585 36.7691 398.001 20.2278 428.001 20.2278C455.423 20.2278 474.606 38.656 479.512 69.4744H379.132Z" fill="white"/>
<path opacity="0.5" d="M538.322 201.553C513.384 200.652 489.058 209.391 470.396 225.956C450.835 244.321 440.898 271.115 440.898 305.644V320.11H590.713C588.889 358.224 569.203 379.168 535.177 379.168C508.132 379.168 492.597 368.853 489.012 348.538V347.846H441.527V348.79C448.257 391.558 482.786 416.276 536.372 416.276C598.889 416.276 640.84 374.136 640.84 311.367V308.222C640.84 245.328 598.701 201.742 538.322 201.742V201.553ZM489.516 286.901C491.968 254.196 508.384 237.655 538.322 237.655C565.744 237.655 584.927 256.083 589.833 286.901H489.516Z" fill="white"/>
<path opacity="0.5" d="M428.002 421.811C403.065 420.909 378.738 429.649 360.076 446.214C340.515 464.579 330.578 491.372 330.578 525.901V540.367H480.393C478.569 578.481 458.883 599.425 424.857 599.425C397.813 599.425 382.278 589.111 378.693 568.796V568.104H331.207V569.047C337.497 611.753 372.34 636.219 425.927 636.219C488.444 636.219 530.395 594.079 530.395 531.31V528.166C530.395 465.271 488.255 421.685 427.876 421.685L428.002 421.811ZM379.133 507.096C381.586 474.391 398.001 457.786 428.002 457.786C455.424 457.786 474.607 476.215 479.513 507.096H379.133Z" fill="white"/>
<path opacity="0.5" d="M214.725 198.593C268.311 198.593 302.778 174.064 309.445 131.421V130.478H262.211V131.17C258.626 151.485 243.342 161.8 216.046 161.8C182.02 161.8 162.334 140.856 160.51 102.741H310.262V88.2757C310.262 53.7465 300.325 26.9534 280.765 8.58809C262.102 -7.97676 237.776 -16.7162 212.838 -15.8151C152.459 -15.8151 110.32 28.2112 110.32 90.6657V93.8104C110.32 156.705 152.333 198.719 214.851 198.719L214.725 198.593ZM161.39 69.5331C166.17 38.5889 185.353 20.0349 212.775 20.0349C242.776 20.0349 259.192 36.6391 261.645 69.2815L161.39 69.5331Z" fill="white"/>
<path opacity="0.5" d="M420.581 305.707C420.581 271.178 410.644 244.385 391.084 226.02C372.421 209.455 348.095 200.715 323.158 201.616C262.779 201.616 220.639 245.643 220.639 308.097V311.242C220.639 374.137 262.653 416.15 325.17 416.15C378.757 416.15 413.223 391.621 419.89 348.979V348.035H372.53V348.727C368.945 369.042 353.662 379.357 326.365 379.357C292.339 379.357 272.653 358.413 270.829 320.299H420.581V305.707ZM271.584 286.839C276.49 255.957 295.673 237.592 323.095 237.592C353.095 237.592 369.511 254.196 371.901 286.839H271.584Z" fill="white"/>
<path opacity="0.5" d="M212.775 421.806C152.396 421.806 110.256 465.833 110.256 528.287V531.432C110.256 594.327 152.27 636.34 214.787 636.34C268.374 636.34 302.84 611.811 309.507 569.169V568.225H262.21V568.917C258.625 589.232 243.342 599.547 216.045 599.547C182.019 599.547 162.333 578.603 160.509 540.489H310.262V526.023C310.262 491.494 300.324 464.701 280.764 446.335C262.101 429.77 237.775 421.031 212.838 421.932L212.775 421.806ZM161.264 507.092C166.17 476.21 185.353 457.782 212.775 457.782C242.776 457.782 259.191 474.386 261.644 507.092H161.264Z" fill="white"/>
<path opacity="0.5" d="M199.125 348.853V347.91H151.891V348.601C148.306 368.916 133.022 379.231 105.726 379.231C71.7001 379.231 52.014 358.287 50.1901 320.173H199.942V305.707C199.942 271.178 190.005 244.385 170.445 226.02C151.782 209.455 127.456 200.715 102.518 201.616C42.1395 201.616 7.05188e-05 245.643 7.05188e-05 308.097V311.242C-0.0628242 373.885 41.9509 416.276 104.468 416.276C158.055 416.276 192.521 391.747 199.188 349.104L199.125 348.853ZM45.9761 286.902C50.8819 256.02 70.0648 237.655 97.4869 237.655C127.488 237.655 143.903 254.259 146.356 286.902H45.9761Z" fill="white"/>
</g>
</svg>
